<svg xmlns="http://www.w3.org/2000/svg" width="114" height="111" fill="none"><path fill="#98CEFF" d="M3.919 87.919a5.891 5.891 0 0 1 5.894-5.888h40.224a5.891 5.891 0 0 1 5.894 5.888v13.161a5.891 5.891 0 0 1-5.895 5.888H9.813a5.891 5.891 0 0 1-5.894-5.888V87.919Z" opacity=".1"/><path fill="#98CEFF" d="M58.069 88.016a5.985 5.985 0 0 1 5.985-5.985H77.02a5.985 5.985 0 0 1 5.985 5.985v12.967a5.985 5.985 0 0 1-5.985 5.985H64.054a5.985 5.985 0 0 1-5.985-5.985V88.016ZM3.919 33.046c0-4.592 5.552-6.892 8.8-3.645l14.617 14.618c3.247 3.247.948 8.8-3.645 8.8H9.073a5.155 5.155 0 0 1-5.154-5.155V33.046Z" opacity=".2"/><path fill="#98CEFF" d="M85.144 60.94a5.985 5.985 0 0 1 5.985-5.984h12.967a5.985 5.985 0 0 1 5.985 5.985v12.967a5.985 5.985 0 0 1-5.985 5.985H91.129a5.985 5.985 0 0 1-5.985-5.985V60.941Z" opacity=".1"/><path fill="#98CEFF" d="M30.994 60.94a5.985 5.985 0 0 1 5.985-5.984h12.967a5.985 5.985 0 0 1 5.985 5.985v12.967a5.985 5.985 0 0 1-5.985 5.985H36.98a5.985 5.985 0 0 1-5.985-5.985V60.941Z" opacity=".2"/><path fill="#98CEFF" d="M43.774 52.818c-7.17 0-12.78-5.922-12.78-12.468 0-6.858 5.61-12.47 12.78-12.47 7.17 0 12.157 5.612 12.157 12.47 0 6.546-4.987 12.468-12.157 12.468Z" opacity=".1"/></svg>