<svg width="64" height="64" viewBox="0 0 64 64" fill="none" xmlns="http://www.w3.org/2000/svg">
<g clip-path="url(#clip0_15391_91968)">
<mask id="mask0_15391_91968" style="mask-type:luminance" maskUnits="userSpaceOnUse" x="0" y="0" width="64" height="64">
<path d="M64 0H0V64H64V0Z" fill="white"/>
</mask>
<g mask="url(#mask0_15391_91968)">
<path d="M64 0H0V64H64V0Z" fill="#E1F1FF"/>
<path d="M42.4347 43.4603C41.7937 34.4862 39.8798 26.849 39.5868 25.8967C39.2663 24.6238 38.6344 23.9096 37.4348 23.7356C36.8946 23.6532 36.3634 23.5891 35.8232 23.525L37.7553 21.8767H37.737C38.0301 21.5836 38.0392 20.9793 37.6363 20.5855L29.2666 13.6535C28.827 13.2231 27.6183 12.0784 26.8948 13.5344V13.5802L26.6201 14.1022C25.5945 11.0803 22.7374 8.90084 19.3676 8.89169C15.2743 8.89169 11.9319 12.0876 11.703 16.1168L6.98699 16.6204C6.54744 16.6662 6.17199 16.8402 5.88811 17.0874L3.25998 19.0104C2.5274 19.3584 2.13364 20.1093 2.34426 20.9152L4.30391 28.4333C3.91931 28.6439 3.5347 28.8087 3.16841 28.8911C2.15196 29.12 1.71241 29.7885 2.15196 31.1987C2.60982 32.6731 4.80756 39.0923 5.98885 46.5371C-12.2158 51.9948 -24.6605 62.9561 -24.6605 75.6022C-24.6605 93.6603 0.705112 108.303 32.0046 108.303C63.3041 108.303 88.6696 93.6603 88.6696 75.6022C88.6696 59.5954 68.7435 46.2899 42.4438 43.4603H42.4347Z" fill="#B9DEFF"/>
<path d="M50.5571 49.3759C52.0315 49.3759 53.286 49.0004 54.3299 48.2404C58.991 44.8613 57.2419 35.2371 57.1687 34.8342C57.0954 34.4221 56.6925 34.1565 56.2896 34.2298C55.8775 34.303 55.6119 34.706 55.6852 35.1089C55.6852 35.1364 56.1156 37.4623 56.024 40.1179C55.9416 42.4713 55.4288 45.5756 53.4417 47.0133C51.3172 48.5517 47.8191 48.0023 43.039 45.3833C42.6728 45.1819 42.2149 45.3192 42.0134 45.6855C41.812 46.0518 41.9493 46.5097 42.3156 46.7111C45.5481 48.4785 48.3045 49.3667 50.5571 49.3667V49.3759Z" fill="white"/>
<path d="M49.2751 27.6274C49.7238 26.7208 51.0333 26.8948 51.8941 28.2776C52.7549 29.6603 53.6065 28.1494 53.5149 27.2794C53.4234 26.4095 53.5424 23.4425 54.9709 23.2136C56.4086 22.9847 55.8317 25.2832 56.2713 26.4095C56.2713 26.4095 56.4361 23.0488 57.5899 22.307C58.643 21.6294 59.6503 22.8015 59.3756 24.1751C59.1283 25.4114 58.6979 27.371 58.9818 27.8747C58.9818 27.8747 59.9067 24.807 61.033 25.155C61.9579 25.448 62.4249 26.5469 61.729 28.1677C61.033 29.7794 61.7748 30.4753 61.3627 32.4716C60.9506 34.4679 59.7968 35.1363 59.7968 35.1363C59.7968 35.1363 58.2218 36.4825 53.8629 34.065C53.8629 34.065 51.8392 32.8928 50.4381 30.9423C48.9821 28.9186 48.8722 28.4241 49.2568 27.6366L49.2751 27.6274Z" fill="white"/>
<path d="M60.7125 30.75C60.7125 30.75 55.7127 28.0853 54.0918 28.8636C52.471 29.642 55.209 30.7775 56.4727 32.6181C57.7364 34.4587 57.361 31.62 56.2987 30.75C55.2365 29.8801 58.5514 30.7226 60.7125 30.75Z" fill="#B9DEFF"/>
<path d="M37.4714 80.9684C37.7828 80.9684 38.0667 80.7761 38.1766 80.4739C41.8578 70.6024 38.0667 61.6557 37.9018 61.2803C37.737 60.8957 37.2883 60.7217 36.9037 60.8865C36.5191 61.0514 36.3451 61.5001 36.5099 61.8847C36.5557 61.9946 40.2095 70.6756 36.7572 79.9428C36.6107 80.3365 36.8121 80.7669 37.2059 80.9134C37.2975 80.9501 37.3799 80.9592 37.4714 80.9592V80.9684Z" fill="white"/>
<path d="M17.5453 82.6167C17.8658 82.6167 18.168 82.4061 18.2687 82.0856C21.2265 72.6994 22.829 62.3151 22.8382 62.2052C22.9023 61.7931 22.6184 61.4085 22.2063 61.3444C21.7943 61.2803 21.4097 61.5642 21.3456 61.9762C21.3272 62.077 19.743 72.3514 16.8219 81.6277C16.6937 82.0306 16.9134 82.4519 17.3164 82.5801C17.3896 82.6075 17.472 82.6167 17.5453 82.6167Z" fill="white"/>
<path d="M25.7319 20.7687C29.9717 20.9335 33.543 17.6369 33.7078 13.3971C33.8727 9.1573 30.576 5.58597 26.3362 5.42114C22.0964 5.25631 18.5251 8.55292 18.3603 12.7927C18.1954 17.0325 21.4921 20.6039 25.7319 20.7687Z" fill="#F1AB02"/>
<path d="M33.0302 9.91729C31.62 11.1169 29.7702 11.8037 27.7739 11.7304C24.7704 11.6114 22.243 9.78909 21.08 7.22506C22.4902 6.03462 24.34 5.33867 26.3362 5.42108C29.3398 5.54013 31.8672 7.36242 33.0302 9.92645V9.91729Z" fill="#FFCD00"/>
<path d="M44.2112 19.0745L41.171 21.4829C40.8688 21.721 40.4933 21.8492 40.1087 21.84L27.9754 21.6386L32.2243 16.4647L40.7497 16.8676L44.2112 19.0837V19.0745Z" fill="#00807C"/>
<path d="M32.3526 18.5617L28.1677 21.5745C27.8747 21.7851 27.4901 21.4646 27.6457 21.1349L33.7994 10.1462L35.6583 13.4703L32.3434 18.5526L32.3526 18.5617Z" fill="#00ABA6"/>
<path d="M44.1471 17.7834L36.0521 10.54C35.6217 10.0913 34.4679 8.90084 33.6804 10.3385L32.0046 17.6277C31.9038 18.168 32.3068 18.7357 32.8013 18.754L43.79 19.2119C44.4401 19.2394 44.6691 18.3328 44.1562 17.7834H44.1471Z" fill="#3BD9D4"/>
<path d="M11.5564 29.0285C11.7854 30.0724 12.9026 30.8508 14.0564 30.7775L21.0067 30.3013C22.1514 30.2281 22.9023 29.3123 22.6733 28.2684L19.9811 16.0343C19.7522 14.9904 18.635 14.212 17.4812 14.2853L13.5619 14.5509C13.278 14.2029 13.0674 13.9556 13.0674 13.9556L12.5546 13.0949L9.85319 14.9263C9.11146 15.2377 8.69022 15.9794 8.86421 16.7944L11.5564 29.0285Z" fill="#E93C3C"/>
<path d="M12.0052 14.7065L14.6974 26.9406C14.9263 27.9845 16.0435 28.7721 17.1973 28.6897L24.1477 28.2135C25.2923 28.1311 26.0432 27.2245 25.8143 26.1806L23.1221 13.9465C22.8931 12.9026 21.7759 12.115 20.6221 12.1975L13.6718 12.6736C12.5271 12.756 11.7762 13.6626 12.0052 14.7065Z" fill="#FF4646"/>
<path d="M14.2212 21.373C14.2212 21.373 11.5107 24.4132 9.37702 24.7978C8.36057 24.981 7.89355 25.6403 8.27816 27.0597C8.94664 29.5047 13.7633 45.4199 11.2726 57.0405C10.7506 60.0807 11.181 60.1082 11.8953 60.6301C13.5894 61.8664 17.646 63.0202 17.646 63.0202C17.646 63.0202 21.025 53.7347 14.2212 21.3639V21.373Z" fill="#0072FF"/>
<path d="M45.8961 23.1678C46.354 24.8711 51.07 47.5719 45.246 61.2803C44.8247 62.0953 44.3211 62.6356 43.4328 62.7638C35.8048 63.8993 24.459 63.478 18.754 63.1484C17.0325 63.0476 17.005 62.8645 17.2522 61.1429C18.0764 55.3281 17.8749 39.2571 13.8274 23.4334C13.6351 22.7832 13.3696 21.4096 15.1186 21.1166C20.439 20.2558 31.8947 18.6533 43.8174 20.906C45.0079 21.1349 45.6122 21.8675 45.887 23.1495L45.8961 23.1678Z" fill="url(#paint0_linear_15391_91968)"/>
<path d="M39.422 38.8176C39.422 38.8176 38.1674 40.8596 32.9661 41.3633C27.7648 41.8669 26.3729 38.4055 22.7741 39.7058C19.1753 40.997 21.4829 51.0059 32.0778 50.7037C42.8559 50.3923 44.2753 43.4053 43.964 41.2534C43.6709 39.2296 41.519 37.1052 39.4311 38.8176H39.422Z" fill="#005ED4"/>
<path d="M38.0941 49.5773C36.5191 50.2092 34.5411 50.6396 32.0687 50.7128C28.2409 50.8227 25.4938 49.5773 23.7173 47.8924C24.6055 46.5371 26.1256 45.6214 27.8747 45.5848C28.8911 45.5665 29.8435 45.8412 30.6493 46.3357C31.3544 45.9419 32.1694 45.7038 33.0393 45.6855C35.4843 45.6306 37.5539 47.2972 38.1033 49.5773H38.0941Z" fill="#FF4646"/>
<path d="M24.9901 42.7827C24.9901 42.7827 23.3876 42.0959 23.2319 41.2442C23.1129 40.5849 23.1587 39.9989 23.2319 39.5685C26.4919 38.726 27.9937 41.8486 32.9569 41.3724C38.1582 40.8688 39.4128 38.8267 39.4128 38.8267C39.7241 38.5703 40.0355 38.3963 40.3468 38.3048C40.6948 38.7626 41.1069 39.5501 41.0062 40.7406C40.8047 43.1215 30.9607 45.8595 24.9901 42.7918V42.7827Z" fill="white"/>
<g opacity="0.5">
<path d="M40.4018 27.4443C39.4036 26.5835 37.6729 25.2191 36.4184 26.4187C36.0612 26.8033 35.7133 27.5175 36.336 27.8014C36.6473 27.9296 37.0136 27.7556 37.096 27.426C37.2151 26.8765 37.6455 26.849 38.1857 27.0047C38.8084 27.197 39.4403 27.5725 39.9714 27.9571C40.3102 28.2043 40.704 27.719 40.4018 27.4351V27.4443Z" fill="#0050BD"/>
</g>
<g opacity="0.5">
<path d="M27.0597 27.4992C25.8143 26.4828 23.873 26.2905 22.6734 27.4717L22.417 27.7098C22.2155 28.0029 21.6569 28.3966 22.0415 28.7446C22.4353 29.0285 22.7008 28.4699 22.9572 28.2593C23.9828 27.2886 25.2923 27.4443 26.2996 28.3417C26.8765 28.882 27.6549 28.012 27.0505 27.4992H27.0597Z" fill="#0050BD"/>
</g>
<path d="M35.933 33.6437C35.814 32.5906 36.4458 31.6566 37.3341 31.565C38.2223 31.4643 39.0373 32.2427 39.1564 33.2958C39.2754 34.3488 38.6436 35.2829 37.7553 35.3744C36.8671 35.466 36.0521 34.6968 35.933 33.6437Z" fill="#28323B"/>
<path d="M36.7389 33.5796C37.0685 33.8543 37.1601 33.4331 37.4531 33.076C37.7462 32.7188 38.1308 32.5815 37.8011 32.3068C37.4715 32.032 36.9678 32.0961 36.6748 32.4441C36.3818 32.7921 36.4092 33.3049 36.7389 33.5796Z" fill="white"/>
<path d="M24.0195 33.8818C23.9004 32.8196 24.5414 31.8764 25.4388 31.7756C26.3454 31.6749 27.1695 32.4624 27.2886 33.5247C27.4076 34.5869 26.7666 35.5301 25.8692 35.6308C24.9627 35.7316 24.1385 34.944 24.0195 33.8818Z" fill="#28323B"/>
<path d="M24.8344 33.8177C25.1641 34.0924 25.2557 33.662 25.5579 33.3141C25.8509 32.9569 26.2447 32.8104 25.9058 32.5357C25.5762 32.261 25.0634 32.3251 24.7612 32.6731C24.4682 33.0302 24.4956 33.543 24.8253 33.8177H24.8344Z" fill="white"/>
<path d="M12.2432 52.2329C12.2432 52.2329 14.3128 51.7568 15.1278 54.3574C15.6955 56.1706 14.7981 61.0605 12.8476 60.9415C11.9227 60.8865 12.637 58.0203 12.637 58.0203C12.637 58.0203 10.9521 58.8078 11.9685 61.1155C12.985 63.4231 10.3111 64.1831 9.69753 60.8682C9.69753 60.8682 9.55101 61.6832 9.88067 62.8828C10.1188 63.7344 7.73788 64.174 7.7104 61.1063C7.98512 63.4414 6.76721 63.4322 6.76721 63.4322C6.76721 63.4322 4.90829 62.1777 6.03463 57.9471C6.83131 54.9526 7.84776 52.6633 12.2432 52.2512V52.2329Z" fill="white"/>
<path d="M11.3184 54.0186C11.6206 54.0186 11.9044 53.8355 12.0235 53.5424C12.1791 53.1578 11.9868 52.7183 11.6022 52.5626C11.5473 52.5443 5.92474 50.255 6.26356 46.6104C6.54744 43.4603 11.6663 40.1912 13.6077 39.193C13.9831 39.0007 14.1296 38.552 13.9373 38.1766C13.745 37.8011 13.2963 37.6546 12.9209 37.8469C12.8476 37.8835 10.9887 38.8359 9.06568 40.3377C6.38261 42.4255 4.93576 44.4859 4.75261 46.473C4.31307 51.2531 10.7689 53.8629 11.0436 53.9728C11.1352 54.0094 11.2268 54.0278 11.3184 54.0278V54.0186Z" fill="white"/>
</g>
</g>
<defs>
<linearGradient id="paint0_linear_15391_91968" x1="46.3932" y1="16.749" x2="24.7756" y2="47.7664" gradientUnits="userSpaceOnUse">
<stop stop-color="#6DDBFF"/>
<stop offset="1" stop-color="#208FFF"/>
</linearGradient>
<clipPath id="clip0_15391_91968">
<rect width="64" height="64" rx="32" fill="white"/>
</clipPath>
</defs>
</svg>
