<svg xmlns="http://www.w3.org/2000/svg" width="91" height="16" fill="none"><g clip-path="url(#a)"><path fill="#FEDD00" d="M46.197 14.192c3.197 0 5.79-2.781 5.79-6.212 0-3.431-2.593-6.212-5.79-6.212-3.198 0-5.79 2.78-5.79 6.212 0 3.43 2.592 6.212 5.79 6.212Z"/><path fill="#007CFF" d="M60.557 14.053c0 .17-.03.33-.09.48a.948.948 0 0 1-.308.395c-.146.114-.352.203-.617.267a4.425 4.425 0 0 1-1.015.096c-.883 0-1.554-.238-2.015-.715-.46-.476-.691-1.177-.691-2.102v-5.38h-.618c-.304 0-.564-.118-.775-.353a1.238 1.238 0 0 1-.32-.864c0-.313.107-.584.32-.811a1.02 1.02 0 0 1 .775-.342h.617v-1.6c0-.37.123-.687.367-.95.243-.263.549-.396.918-.396.341 0 .635.132.879.396.243.263.365.58.365.95v1.6h.994c.291 0 .543.118.756.353.212.235.319.516.319.843 0 .327-.107.605-.319.833a1.002 1.002 0 0 1-.756.342h-.994v4.654c0 .412.096.704.287.875.192.17.389.256.588.256h.219c.357 0 .633.114.825.342.193.228.29.505.29.833v-.002ZM64.177 13.818c0 .37-.122.687-.368.95a1.193 1.193 0 0 1-.905.395c-.358 0-.64-.131-.886-.395a1.342 1.342 0 0 1-.368-.95V5.919c0-.37.122-.683.368-.94.246-.256.554-.384.925-.384.345 0 .638.128.876.385.239.256.357.569.357.94v7.898h.001ZM74.125 13.797c0 .328-.117.637-.349.928a1.104 1.104 0 0 1-.905.438c-.2 0-.395-.047-.587-.139a1.089 1.089 0 0 1-.468-.437l-2.248-3.522-1.154 1.323v1.43c0 .37-.123.687-.369.95a1.191 1.191 0 0 1-.905.395c-.36 0-.64-.132-.886-.395a1.345 1.345 0 0 1-.367-.95V1.99c0-.369.122-.683.367-.94.246-.256.555-.384.925-.384.344 0 .638.128.877.385.238.256.358.569.358.94v7.322L71.816 5c.225-.284.51-.427.856-.427.318 0 .597.128.835.384.24.256.359.554.359.896 0 .299-.093.57-.279.811l-2.228 2.733 2.527 3.63c.16.242.24.498.24.768v.001ZM84.072 9.507c0 .327-.114.615-.338.865a1.08 1.08 0 0 1-.835.373H76.97c.04.328.13.638.268.928.139.292.325.545.558.758.232.214.51.385.835.512a2.99 2.99 0 0 0 1.105.192c.264 0 .567-.042.904-.128.338-.085.66-.213.966-.385.159-.085.325-.127.497-.127.265 0 .51.1.736.298.225.2.338.462.338.79a.903.903 0 0 1-.437.812c-.479.312-1 .54-1.563.682a7.021 7.021 0 0 1-1.72.214c-.73 0-1.41-.129-2.038-.384a4.749 4.749 0 0 1-1.633-1.089 5.014 5.014 0 0 1-1.074-1.707c-.259-.67-.388-1.416-.388-2.242 0-.74.122-1.441.368-2.103a5.228 5.228 0 0 1 1.025-1.718 4.867 4.867 0 0 1 1.572-1.153 4.695 4.695 0 0 1 2.009-.427c.544 0 1.051.082 1.523.245a4.5 4.5 0 0 1 1.283.693c.385.3.72.666 1.005 1.1.283.435.514.915.686 1.44.065.242.129.5.188.77.06.27.09.533.09.789v.002Zm-2.407-.598a2.918 2.918 0 0 0-.159-.77 2.292 2.292 0 0 0-.418-.736 2.233 2.233 0 0 0-.726-.554c-.298-.15-.653-.225-1.065-.225-.412 0-.74.071-1.025.213a2.19 2.19 0 0 0-.706.544c-.186.22-.332.466-.438.736a3.037 3.037 0 0 0-.198.79h4.734l.001.002ZM90.379 14.053c0 .17-.03.33-.09.48a.937.937 0 0 1-.308.395c-.146.114-.351.203-.617.267a4.443 4.443 0 0 1-1.014.096c-.883 0-1.555-.238-2.014-.715-.46-.476-.691-1.177-.691-2.102v-5.38h-.617c-.305 0-.564-.118-.776-.353a1.241 1.241 0 0 1-.319-.864c0-.313.106-.584.319-.811.212-.228.471-.342.776-.342h.617v-1.6c0-.37.121-.687.365-.95.243-.263.55-.396.918-.396.34 0 .634.132.877.396.243.263.366.58.366.95v1.6h.994c.291 0 .543.118.756.353.213.235.318.516.318.843 0 .327-.105.605-.318.833a1.002 1.002 0 0 1-.756.342h-.994v4.654c0 .412.095.704.288.875.192.17.388.256.586.256h.22c.358 0 .633.114.825.342.191.228.288.505.288.833v-.002ZM29.368 8.017a5.014 5.014 0 0 0-.948-1.625 4.294 4.294 0 0 0-1.4-1.043c-.008-.004-.759-.396-1.636-.375-.534.012-.824.154-1.056.288l-.064.042c-.096.069-.34.242-.558.53-.418.548-.475 1.42-.388 2.053l.035.252.171-.164c.154-.146.437-.36.848-.468.22-.058.45-.065.673-.031.534.078.99.327 1.358.746.447.509.673 1.166.673 1.953 0 .787-.227 1.437-.677 1.927-.45.49-1.027.738-1.713.738-.687 0-1.27-.24-1.713-.717-.71-.761-.66-2.262-.66-2.283V.992a.102.102 0 0 0-.067-.098L21.959.8a2.76 2.76 0 0 0-.845-.121c-.427 0-.768.094-1.016.278-.221.166-.333.47-.333.907v7.826c0 .835.079 1.565.236 2.173.154.598.375 1.106.657 1.51a4.421 4.421 0 0 0 1.732 1.456c.707.334 1.505.504 2.37.504.708 0 1.372-.127 1.975-.377a4.723 4.723 0 0 0 1.57-1.048 4.783 4.783 0 0 0 1.036-1.63c.25-.639.377-1.353.377-2.124 0-.77-.117-1.505-.35-2.138ZM13.963.805a2.836 2.836 0 0 0-.856-.121c-.426 0-.768.094-1.015.278-.222.165-.334.47-.334.907v13.185h2.568V.921l-.362-.116ZM17.13 3.746c.404 0 .75-.147 1.024-.435.274-.29.413-.654.413-1.086 0-.431-.139-.802-.415-1.097A1.348 1.348 0 0 0 17.13.685a1.32 1.32 0 0 0-1.011.442c-.27.295-.406.666-.406 1.1 0 .433.136.798.405 1.086.269.288.61.434 1.013.434ZM17.206 5.26c-.427 0-.768.095-1.016.28-.222.165-.334.47-.334.907v8.606h2.568V5.498l-.362-.117a2.831 2.831 0 0 0-.857-.121ZM33.07.805a2.831 2.831 0 0 0-.857-.121c-.426 0-.768.094-1.015.278-.222.165-.335.47-.335.907v13.185h2.568V.921l-.363-.116h.001ZM36.18 3.746c.403 0 .748-.147 1.023-.435.274-.288.413-.653.413-1.086 0-.432-.139-.802-.415-1.097A1.348 1.348 0 0 0 36.18.685c-.403 0-.743.149-1.011.442-.27.295-.406.666-.406 1.1 0 .433.136.798.405 1.087.268.287.61.434 1.013.434v-.002ZM36.254 5.26c-.427 0-.768.095-1.016.28-.222.165-.334.47-.334.906v8.607h2.567V5.498l-.362-.116a2.828 2.828 0 0 0-.856-.121ZM10.225 8.017a5.012 5.012 0 0 0-.948-1.625A4.293 4.293 0 0 0 7.876 5.35c-.008-.004-.758-.396-1.636-.375-.533.012-.823.154-1.056.288l-.063.042c-.097.069-.34.242-.559.53-.417.548-.474 1.42-.387 2.053l.034.252.172-.164c.153-.146.437-.36.848-.468.22-.058.449-.065.673-.031.534.078.99.327 1.357.746.447.509.674 1.166.674 1.953 0 .787-.228 1.437-.677 1.927-.45.49-1.027.738-1.714.738s-1.269-.24-1.713-.717c-.71-.761-.66-2.262-.66-2.283V.992a.102.102 0 0 0-.067-.098L2.816.8A2.73 2.73 0 0 0 1.97.68c-.425 0-.766.094-1.015.278-.221.166-.334.47-.334.907v7.826c0 .835.08 1.565.236 2.173.155.598.375 1.106.657 1.51a4.421 4.421 0 0 0 1.733 1.456c.707.334 1.504.504 2.37.504.707 0 1.371-.127 1.974-.377a4.723 4.723 0 0 0 1.57-1.048 4.783 4.783 0 0 0 1.037-1.63c.25-.639.377-1.353.377-2.124 0-.77-.118-1.505-.351-2.138Z"/></g><defs><clipPath id="a"><path fill="#fff" d="M0 0h91v16H0z"/></clipPath></defs></svg>